<?xml version="1.0" encoding="UTF-8" standalone="no"?>
<!-- Created with Inkscape (http://www.inkscape.org/) -->

<svg
   width="1920"
   height="1080"
   viewBox="0 0 507.99999 285.75"
   version="1.1"
   id="svg5"
   xml:space="preserve"
   inkscape:version="1.2.2 (1:1.2.2+202305151915+b0a8486541)"
   sodipodi:docname="default.svg"
   xmlns:inkscape="http://www.inkscape.org/namespaces/inkscape"
   xmlns:sodipodi="http://sodipodi.sourceforge.net/DTD/sodipodi-0.dtd"
   xmlns="http://www.w3.org/2000/svg"
   xmlns:svg="http://www.w3.org/2000/svg"><sodipodi:namedview
     id="namedview7"
     pagecolor="#ffffff"
     bordercolor="#666666"
     borderopacity="1.0"
     inkscape:showpageshadow="2"
     inkscape:pageopacity="0.0"
     inkscape:pagecheckerboard="0"
     inkscape:deskcolor="#d1d1d1"
     inkscape:document-units="mm"
     showgrid="false"
     inkscape:lockguides="false"
     inkscape:zoom="0.50268269"
     inkscape:cx="923.0475"
     inkscape:cy="646.53112"
     inkscape:window-width="1920"
     inkscape:window-height="1012"
     inkscape:window-x="0"
     inkscape:window-y="30"
     inkscape:window-maximized="1"
     inkscape:current-layer="layer7" /><defs
     id="defs2"><inkscape:path-effect
       effect="fill_between_many"
       method="originald"
       linkedpaths="#path1282,0,1|#path1284,0,1|#path1286,0,1|#path1288,0,1|"
       id="path-effect2055" /></defs><g
     inkscape:groupmode="layer"
     id="layer7"
     inkscape:label="background"
     style="stroke:#000000;stroke-opacity:1;stroke-width:1.32291667;stroke-dasharray:none"><rect
       style="stroke:none;stroke-opacity:1;stroke-width:1.32292;stroke-dasharray:none;fill:#23cedd;fill-opacity:1;fill-rule:nonzero"
       id="rect2111"
       width="524.21301"
       height="301.29831"
       x="-7.8306642"
       y="-7.7781873" /><path
       inkscape:original-d="M 0,0"
       inkscape:path-effect="#path-effect2055"
       d="M 159.55479,-22.724427 68.045591,341.94085 296.16363,350.23541 239.88265,-29.545325 449.1936,-11.987836 367.04116,329.22535 603.02727,193.73296 -40.250602,74.746227 Z"
       id="path2057"
       class="UnoptimicedTransforms"
       style="display:inline;fill-rule:nonzero;fill:#d448dd;fill-opacity:1" /><path
       style="fill:none;stroke:#000000;stroke-width:1.32291667;stroke-linecap:butt;stroke-linejoin:miter;stroke-opacity:1;stroke-dasharray:none"
       d="M 159.55479,-22.724427 68.045591,341.94085"
       id="path1282"
       class="UnoptimicedTransforms" /><path
       style="fill:none;stroke:#000000;stroke-width:1.32291667;stroke-linecap:butt;stroke-linejoin:miter;stroke-opacity:1;stroke-dasharray:none"
       d="M 296.16363,350.23541 239.88265,-29.545325"
       id="path1284"
       class="UnoptimicedTransforms" /><path
       style="fill:none;stroke:#000000;stroke-width:1.32291667;stroke-linecap:butt;stroke-linejoin:miter;stroke-opacity:1;stroke-dasharray:none"
       d="M 449.1936,-11.987836 367.04116,329.22535"
       id="path1286"
       class="UnoptimicedTransforms" /><path
       style="fill:none;stroke:#000000;stroke-width:1.32291667;stroke-linecap:butt;stroke-linejoin:miter;stroke-opacity:1;stroke-dasharray:none"
       d="M -40.250602,74.746227 603.02727,193.73296"
       id="path1288"
       class="UnoptimicedTransforms" /></g><g
     inkscape:groupmode="layer"
     id="layer5"
     inkscape:label="skin down"><path
       style="display:inline;fill:#ffb437;fill-opacity:1;stroke:none;stroke-width:0.264583px;stroke-linecap:butt;stroke-linejoin:miter;stroke-opacity:1"
       d="m 299.01245,160.81038 c 0,0 4.69709,-11.26945 7.36012,-13.87079 2.66303,-2.60135 9.28754,-9.9216 9.84994,-11.40649 0.56237,-1.48489 6.10346,-9.85833 6.24406,-10.82965 0.1406,-0.97132 -18.61426,-18.58428 -18.61426,-18.58428 l -12.67972,7.44181 1.32749,19.30286 -9.34226,18.9087 z"
       id="path574"
       sodipodi:nodetypes="csssccccc"
       inkscape:label="left palm color" /><path
       style="fill:none;fill-opacity:1;stroke:#000000;stroke-width:1.32291667;stroke-linecap:butt;stroke-linejoin:miter;stroke-opacity:1;stroke-dasharray:none"
       d="m 299.01245,160.81038 c 0,0 4.69709,-11.26945 7.36012,-13.87079 2.66303,-2.60135 9.28754,-9.9216 9.84994,-11.40649 0.56237,-1.48489 6.10346,-9.85833 6.24406,-10.82965"
       id="path1237"
       sodipodi:nodetypes="cssc"
       inkscape:label="left palm contour" /><path
       style="display:inline;fill:#ffb437;fill-opacity:1;stroke:none;stroke-width:0.264583px;stroke-linecap:butt;stroke-linejoin:miter;stroke-opacity:1"
       d="m 345.92061,153.23924 c 0,0 -4.1765,-14.17903 -3.0104,-21.1234 1.16612,-6.94438 -5.86364,-22.33662 -5.86364,-22.33662 l 20.78325,-15.55599 c 0,0 5.86365,3.877834 8.63418,9.72063 2.77056,5.8428 8.55977,9.96625 5.2682,15.6602 -3.29161,5.69394 -5.66516,17.55817 -4.80505,21.77838 0.86011,4.22022 -2.67957,15.80905 -5.02007,18.04942 -2.3405,2.24036 -15.98647,-6.19262 -15.98647,-6.19262 z"
       id="path1239"
       sodipodi:nodetypes="csccssssc"
       inkscape:label="right palm color" /><path
       style="display:inline;fill:none;fill-opacity:1;stroke:#000000;stroke-width:1.32291667;stroke-linecap:butt;stroke-linejoin:miter;stroke-opacity:1;stroke-dasharray:none"
       d="m 357.82982,94.22323 c 0,0 5.86365,3.877834 8.63418,9.72063 2.77056,5.8428 8.55977,9.96625 5.2682,15.6602 -3.29161,5.69394 -5.66516,17.55817 -4.80505,21.77838 0.86011,4.22022 -2.67957,15.80905 -5.02007,18.04942 -2.3405,2.24036 -15.98647,-6.19262 -15.98647,-6.19262 0,0 -4.1765,-14.17903 -3.0104,-21.1234 1.16612,-6.94438 -5.86364,-22.33662 -5.86364,-22.33662"
       id="path1241"
       sodipodi:nodetypes="csssscsc"
       inkscape:label="right palm contour" /></g><g
     inkscape:groupmode="layer"
     id="layer6"
     inkscape:label="book"><path
       style="fill:#32b42c;fill-opacity:1;stroke:#000000;stroke-width:1.32291667;stroke-linecap:butt;stroke-linejoin:miter;stroke-opacity:1;stroke-dasharray:none"
       d="m 303.49076,88.344945 -7.55907,46.950805 c 0,0 9.21311,-4.33186 17.74807,-4.16811 8.53495,0.16375 13.64599,6.50523 13.64599,6.50523 0,0 4.46595,-8.97632 14.73766,-8.5744 10.27171,0.40192 13.4475,2.5753 13.4475,2.5753 l 2.90617,-43.820368 c 0,0 -10.06826,-3.368619 -16.71755,-0.852868 -6.64932,2.515754 -10.88372,5.71627 -10.88372,5.71627 0,0 -3.87051,-7.115566 -9.51084,-7.62169 -5.64034,-0.506127 -17.81421,3.289831 -17.81421,3.289831 z"
       id="path1278"
       sodipodi:nodetypes="ccscsccscsc" /></g><g
     inkscape:groupmode="layer"
     id="layer3"
     inkscape:label="skin up"><path
       style="fill:#ffb437;stroke:#000000;stroke-width:1.32291667;stroke-linecap:butt;stroke-linejoin:miter;stroke-opacity:1;fill-opacity:1;stroke-dasharray:none"
       d="m 265.36774,56.019882 c 0,0 3.76611,4.268322 4.50879,5.847233 0.74269,1.578912 1.30411,3.910436 0.30993,6.410381 -0.99414,2.499942 -1.33918,4.568314 -0.20468,7.278777 1.13451,2.710466 2.33336,6.08407 0.041,12.92602 -2.29243,6.841948 -2.96378,6.97524 -4.33221,12.843527 -1.36844,5.86828 -6.08191,13.65231 -8.11116,16.2312 -2.02925,2.57889 -10.49712,2.20521 -10.49712,2.20521 0,0 -0.78603,5.02304 -0.79773,6.923 -0.0117,1.89996 0.47368,14.78914 0.47368,14.78914 l -54.03534,-7.04195 c 0,0 9.4094,-8.34717 10.8714,-13.54179 1.46199,-5.19462 4.0468,-12.96812 3.97662,-15.11018 -0.0702,-2.14206 29.30406,-35.902876 29.30406,-35.902876 z"
       id="path562"
       inkscape:label="face" /><path
       style="fill:#ffb437;stroke:none;stroke-width:0.264583px;stroke-linecap:butt;stroke-linejoin:miter;stroke-opacity:1;fill-opacity:1"
       d="m 277.38146,154.50645 c 0,0 10.03515,-14.06283 10.77201,-17.85221 0.73684,-3.78939 0.5692,-3.84349 -0.007,-5.31977 -0.57602,-1.47628 -2.33275,-7.03466 -3.09885,-9.05566 -0.76608,-2.02101 -0.71983,-4.61244 2.62228,-8.10972 3.34212,-3.49729 2.6579,-6.69195 6.04682,-7.80772 3.38891,-1.11576 4.23074,-0.86148 5.17768,-1.56486 0.94695,-0.70336 3.67702,-1.62577 4.9285,-0.94684 1.25145,0.67893 1.67836,1.48944 0.66083,3.11572 -1.01757,1.62628 -2.75442,2.2789 -3.95325,2.81572 -1.19883,0.53683 -3.65498,1.51049 -3.65498,1.51049 0,0 -0.88889,1.99996 -1.59652,2.5789 -0.7076,0.57892 -2.26902,4.06306 -2.26902,4.06306 l 2.51975,13.21468 -1.56309,13.04024 z"
       id="path567"
       inkscape:label="left thumb color" /><path
       style="fill:none;fill-opacity:1;stroke:#000000;stroke-width:1.32291667;stroke-linecap:butt;stroke-linejoin:miter;stroke-opacity:1;stroke-dasharray:none"
       d="m 277.38146,154.50645 c 0,0 10.03515,-14.06283 10.77201,-17.85221 0.73684,-3.78939 0.5692,-3.84349 -0.007,-5.31977 -0.57602,-1.47628 -2.33275,-7.03466 -3.09885,-9.05566 -0.76608,-2.02101 -0.71983,-4.61244 2.62228,-8.10972 3.34212,-3.49729 2.6579,-6.69195 6.04682,-7.80772 3.38891,-1.11576 4.23074,-0.86148 5.17768,-1.56486 0.94695,-0.70336 3.67702,-1.62577 4.9285,-0.94684 1.25145,0.67893 1.67836,1.48944 0.66083,3.11572 -1.01757,1.62628 -2.75442,2.2789 -3.95325,2.81572 -1.19883,0.53683 -3.65498,1.51049 -3.65498,1.51049 0,0 -0.88889,1.99996 -1.59652,2.5789 -0.7076,0.57892 -2.26902,4.06306 -2.26902,4.06306"
       id="path1227"
       inkscape:label="left thumb contour"
       sodipodi:nodetypes="cscssssssscsc" /><path
       style="display:inline;fill:#ffb437;fill-opacity:1;stroke:none;stroke-width:0.264583px;stroke-linecap:butt;stroke-linejoin:miter;stroke-opacity:1"
       d="m 362.44297,114.80587 c -4.39981,-2.99212 -5.76666,-7.13571 -9.33718,-6.29683 -5.38465,1.2651 -8.36216,4.18785 -8.36216,4.18785 0,0 0.43096,2.46253 3.63157,2.924 3.20061,0.46147 5.45838,-0.7778 5.45838,-0.7778 0,0 0.0414,0.17863 0.47967,1.7119 0.43833,1.53327 2.25779,3.50568 2.25779,3.50568 0,0 -1.0586,-0.42426 -4.49903,2.72416 -3.44045,3.14841 -2.77881,14.64793 -2.77881,14.64793 l 16.15411,-1.04993 4.62724,-20.82195 z"
       id="path572"
       sodipodi:nodetypes="cscscscsc"
       inkscape:label="right thumb color" /><path
       style="display:inline;fill:none;stroke:#000000;stroke-width:1.32291667;stroke-linecap:butt;stroke-linejoin:miter;stroke-opacity:1;stroke-dasharray:none"
       d="m 349.2932,137.43276 c 0,0 -0.66164,-11.49952 2.77881,-14.64793 3.44043,-3.14842 4.49903,-2.72416 4.49903,-2.72416 0,0 -1.81946,-1.97241 -2.25779,-3.50568 -0.43831,-1.53327 -0.47967,-1.7119 -0.47967,-1.7119 0,0 -2.25777,1.23927 -5.45838,0.7778 -3.20061,-0.46147 -3.63157,-2.924 -3.63157,-2.924 0,0 2.97751,-2.92275 8.36216,-4.18785 3.57052,-0.83888 4.93737,3.30471 9.33718,6.29683"
       id="path1244"
       sodipodi:nodetypes="cscscscsc"
       inkscape:label="right thumb contour" /></g><g
     inkscape:groupmode="layer"
     id="layer4"
     inkscape:label="clothes"><path
       style="fill:#5041ac;stroke:#000000;stroke-width:1.32291667;stroke-linecap:butt;stroke-linejoin:miter;stroke-opacity:1;fill-opacity:1;stroke-dasharray:none"
       d="m 363.52209,224.35581 c 0,0 0.89044,1.85449 -3.21163,5.61323 -4.10206,3.75874 -0.2481,8.2618 -2.10065,14.80425 -1.85255,6.54244 -1.90898,4.80699 -5.33289,5.48431 -3.4239,0.67732 -4.36672,3.37915 -6.38467,3.40148 -2.01795,0.0223 -1.51346,1.14622 -2.67957,1.13134 -1.16611,-0.0149 -1.72849,-0.0521 -4.82985,0.77408 -3.10136,0.82618 -3.31639,0.34982 -4.55693,-0.19352 -1.24055,-0.54334 -5.63207,1.66725 -8.87403,0.63266 -3.24195,-1.03459 -1.92698,-3.08142 -5.64034,-2.08406 -3.71336,0.99737 -5.57417,0.87084 -7.51769,-0.49868 -1.94353,-1.36953 -4.54039,0.45403 -5.11932,2.86558 -0.57892,2.41154 -5.76226,11.83067 -5.06756,23.14412 0.6947,11.31346 -4.59831,27.59885 -7.07938,33.22581 -2.48107,5.62696 -128.84334,-13.86854 -128.84334,-13.86854 0,0 8.117,-70.20892 4.28072,-83.21914 -3.83628,-13.01022 -21.02934,-50.9883 -8.58484,-65.51428 12.44451,-14.52598 29.8715,-22.75737 48.14059,-20.23111 18.26909,2.52626 44.51481,6.69459 52.84234,12.12604 8.32752,5.43145 14.87728,7.34719 27.20483,9.03137 12.32752,1.68417 21.82463,9.30505 23.43869,12.90496 1.61404,3.59992 3.74269,2.39996 4.37428,5.11568 0.63159,2.71572 1.3113,10.03065 4.35478,11.09501 3.04345,1.06435 3.53967,1.41418 4.63962,2.68694 1.09996,1.27276 1.07927,1.67097 1.07927,1.67097 0,0 0.091,-0.37215 0.45487,-0.61777 0.36391,-0.24563 1.25709,-0.27168 1.25709,-0.27168 0,0 -1.04207,-0.588 -0.47967,-3.76618 0.56237,-3.17819 -0.0906,-8.35596 4.67313,-13.05253 4.76369,-4.69657 5.21578,-2.53136 6.80781,-7.23909 1.59205,-4.70774 2.14614,-7.23094 2.14614,-7.23094 0,0 6.82185,-4.83035 15.15004,-1.81219 8.32818,3.01816 10.57772,7.17139 11.89267,9.01727 1.31498,1.84587 0.80638,5.1171 1.70784,6.18146 0.90146,1.06435 1.09995,3.24145 0.0455,5.39249 -1.05447,2.15104 -1.5507,2.67206 -1.28603,4.36163 0.26466,1.68958 0.91286,3.58553 0.66063,4.80619 -0.25225,1.22066 -1.81533,2.52692 -0.82703,4.11973 0.9883,1.59282 -0.26466,2.62368 -1.98488,4.29093 -1.72021,1.66724 -3.47766,2.48598 -3.95732,4.73006 -0.47969,2.24408 0.9964,8.10297 -0.48397,11.08392 -1.4804,2.98094 -2.14615,6.59082 -1.52588,8.64139 0.62026,2.05056 1.41097,11.20354 1.21663,11.26681"
       id="path565" /></g><g
     inkscape:label="hair"
     inkscape:groupmode="layer"
     id="layer1"><path
       style="fill:#6b2221;fill-opacity:1;stroke:#000000;stroke-width:1.32292;stroke-linecap:butt;stroke-linejoin:miter;stroke-dasharray:none;stroke-opacity:1"
       d="m 185.32105,72.605756 c 6.46786,-13.215485 2.00585,-17.71538 6.45032,-28.051987 4.44447,-10.336607 21.28663,-28.399349 47.11133,-21.93634 25.82469,6.463009 26.64342,22.946845 26.64342,22.946845 0,0 3.7193,2.610453 6.05848,11.704986 2.33921,9.094534 1.91813,20.631105 0.65498,25.241525 -1.26315,4.610423 -1.12279,12.88392 -1.12279,12.88392 0,0 -2.25278,-10.704071 -0.80834,-16.372361 1.44444,-5.668288 -0.18712,-20.573213 -2.54973,-23.599457 -2.25591,-2.889576 -4.00045,-3.002497 -4.00045,-3.002497 0,0 2.08188,0.863145 3.43861,8.29455 1.35673,7.431405 -0.40936,8.936632 -1.30995,13.483896 -0.90059,4.547262 -1.4386,15.031228 -1.4386,15.031228 0,0 -0.0351,-14.56808 -3.41522,-19.989011 -3.38012,-5.420929 -8.73688,2.105215 -14.91235,9.862931 -6.17546,7.757715 -7.2281,5.105143 -10.32753,9.936612 -3.09943,4.831469 -4.655,17.062774 -15.48545,19.136404 -10.83046,2.07363 -13.29052,0.58182 -13.29052,0.58182 0,0 0.65681,-2.79186 -0.33735,-5.48654 -0.99416,-2.69468 -5.11114,3.7578 -8.44449,1.16839 -3.33334,-2.58941 -5.97663,-6.915636 -4.09358,-13.157593 1.88305,-6.241957 -3.30996,-8.968208 -3.7895,-7.136675 -0.47953,1.831533 -1.1541,8.879466 2.4651,17.529018 1.74854,4.17885 3.84076,8.57052 5.88639,11.39505 2.10548,2.9072 4.14022,3.51908 4.14022,3.51908 0,0 -2.49496,0.9733 -4.81077,-0.83192 -2.45982,-1.91748 -6.46958,-6.83219 -6.46958,-6.83219 0,0 1.86635,4.91287 4.10028,8.99699 2.23393,4.08411 7.14124,7.96128 7.14124,7.96128 0,0 -2.5965,2.04205 -6.3626,0.75787 -3.7661,-1.28418 -3.60236,-2.56836 -3.60236,-2.56836 0,0 0.69104,4.78625 2.8665,6.83884 2.17545,2.05259 5.10888,4.35275 5.10888,4.35275 0,0 -6.61977,0.81135 -10.86541,-3.35697 -4.24564,-4.16833 -6.15848,-7.9124 -6.15848,-7.9124 0,0 0.17544,6.41037 3.07604,9.58925 2.90059,3.17887 5.49709,4.31568 5.49709,4.31568 0,0 -4.59651,0.77894 -8.23395,-1.821 -3.63744,-2.59994 -3.81289,-4.53674 -3.81289,-4.53674 0,0 0.49124,4.23674 2.00002,6.39459 1.50878,2.15784 2.69591,3.76832 2.69591,3.76832 0,0 -2.05098,-0.21761 -2.81999,-0.74918 -0.76901,-0.53156 -2.38152,-2.34266 -2.38152,-2.34266 0,0 0.13637,1.36659 0.82953,3.10375 0.53933,1.35164 0.83093,3.09049 0.73036,3.00392 0,0 -3.74677,1.14723 -13.16202,-16.0208 -9.41525,-17.16803 0.27399,-44.328748 9.32168,-50.056742 7.81224,-4.945846 6.70341,-4.913194 7.78904,-6.038072 z"
       id="path430"
       sodipodi:nodetypes="csscsscsscsscsssscsssssscscscscscscscscscscscssc" /></g></svg>
